<?xml version="1.0" encoding="UTF-8" standalone="no"?>
<!-- Created with Inkscape (http://www.inkscape.org/) -->

<svg
  width="43.920834mm"
  height="41.089794mm"
  viewBox="0 0 43.920834 41.089794"
  version="1.1"
  id="svg1"
  xml:space="preserve"
  xmlns="http://www.w3.org/2000/svg"
  xmlns:svg="http://www.w3.org/2000/svg"
>
  <style>
    .fill {
      fill: #070725;
      fill-opacity: 1;
      stroke-linejoin: miter;
      stroke-dasharray: none;
      stroke-opacity: 1;
    }
    .background {
      fill: white;
      fill-opacity: 1;
      stroke: none;
      stroke-width: 1.483;
      stroke-dasharray: none;
      stroke-opacity: 1;
    }
  </style>
  <path
    class="background"
    id="rect10"
    width="44.078354"
    height="41.271023"
    x="327.86493"
    y="0.0032991825"
    d="m 334.06068,0.00329918 h 31.68686 c 3.43244,0 6.19574,2.76330352 6.19574,6.19574782 v 28.879527 c 0,3.432444 -2.7633,6.195748 -6.19574,6.195748 h -31.68686 c -3.43245,0 -6.19575,-2.763304 -6.19575,-6.195748 V 6.199047 c 0,-3.4324443 2.7633,-6.19574782 6.19575,-6.19574782 z"
    ry="6.1957479"
    transform="translate(-327.84168)"
  />
  <path
    d="m 32.681514,18.839669 5.01029,-1.729752 4.57044,-7.7642977 c 0,0 -13.45745,-10.0935819 -23.86792,-7.7642939 l -0.76175,0.258817 c -1.52347,0.517613 -2.79304,1.294045 -3.5548,2.329288 l -0.50783,0.776429 -4.0510295,7.1367836 c -1.15954,1.911778 -1.1804,4.324351 0.24234,6.58014 0.5703395,0.755761 1.2816195,1.433161 2.0906695,2.014616"
    id="path14-0-3-7-0-2-7-0"
    class="background"

  />
  <path
    class="fill"
    d="m 340.92118,4.7463011 0.52917,-0.79375 c 0.79375,-1.058333 2.11666,-1.852083 3.70416,-2.38125 l 0.79375,-0.264583 c 10.84792,-2.38125 24.87084,7.9374999 24.87084,7.9374999 l -4.7625,7.9375 C 353.75779,8.441816 340.40637,6.499005 336.69216,12.053936 Z"
    id="path14-8-7-4-0-4"
    transform="matrix(0.80514676,0,0,0.80514676,-259.68478,3.9989751)"
  />
  <path
    id="path14-8-7-4-6"
    class="fill"
    d="m 344.37278,8.930721 c -3.53957,0.011308 -6.28784,1.0402266 -7.68067,3.123324 -1.269,1.897973 -1.22205,4.409246 0.26045,6.715352 2.64583,3.43958 8.20208,5.291659 12.7,3.96875 l 16.40417,-5.55625 C 358.36998,11.719464 350.27206,8.9118751 344.37278,8.930721 Z m 0.006,2.000911 c 4.60378,-0.01471 10.79784,1.854861 17.14262,5.674073 l -12.46487,4.222481 c -3.66953,1.062748 -8.34627,-0.522517 -10.47068,-3.222542 -1.03871,-1.672685 -0.96532,-3.343549 -0.23254,-4.439523 0.88996,-1.331014 2.86708,-2.224399 6.02547,-2.234489 z"
    transform="matrix(0.80514676,0,0,0.80514676,-259.68478,3.9989751)"
  />
  <path
    id="path17-5-9-0-1-0"
    class="fill"
    d="m 348.67277,25.94467 c -1.17169,-0.01132 -2.3565,0.150979 -3.51813,0.497644 l -16.4021,5.290116 c 0,0 14.02086,10.584878 24.86877,7.93905 l 0.79375,-0.264583 c 1.89238,-0.556579 3.2693,-1.628307 4.03283,-2.939355 l 0.002,-5.17e-4 c 1.04927,-1.804803 0.93736,-4.063483 -0.59532,-6.055961 -2.27264,-2.839235 -5.66678,-4.432441 -9.18187,-4.466394 z m -0.0186,2.000394 c 2.91083,0.02812 5.7273,1.342299 7.61917,3.689698 1.0524,1.37208 1.0504,2.769653 0.45734,3.806486 l -0.0119,0.01964 c -0.47121,0.809113 -1.39798,1.594594 -2.86907,2.027266 l -0.0351,0.0098 -0.72295,0.242362 c -3.77429,0.901734 -8.13544,-0.01101 -12.18737,-1.583883 0,0 -3.67023,-1.41002 -7.61349,-3.785298 l 12.45919,-4.019393 0.0176,-0.0062 c 0.95295,-0.279905 1.92509,-0.409781 2.88664,-0.400493 z"
    transform="matrix(0.80514676,0,0,0.80514676,-259.68478,3.9989751)"
  />
  <path
    d="m 345.15451,26.442133 c 4.64653,-1.38666 9.6698,0.18311 12.7,3.96876 1.53268,1.99248 1.6448,4.251311 0.59352,6.056471 l 0.004,-7.1e-4 5.22315,-9.230771 c 1.05833,-1.85208 0.79375,-3.96875 -0.52917,-6.085414 -3.03019,-3.785639 -8.05348,-5.355413 -12.7,-3.968751 l -16.40417,5.291665 -5.28925,9.25883 z"
    id="path3-9-7-0-3"
    class="fill"
    transform="matrix(0.80514676,0,0,0.80514676,-259.68478,3.9989751)"
  />
</svg>